<svg id="Horizontal" xmlns="http://www.w3.org/2000/svg" viewBox="0 0 752.03 349.01"><defs><style>.cls-1{fill:#1d1d1b;}.cls-2{fill:#e20613;}.cls-3{fill:#fff;}</style></defs><title>Logo</title><path class="cls-1" d="M347.24,209.84v17.4H344.8v-17.4h-5.61v-2.09H353l-.29,2.09Z"/><path class="cls-1" d="M363,227.24l-.2-2.41a5.07,5.07,0,0,1-4.67,2.75c-2.64,0-4.17-1.65-4.17-4.56V212.34h2.38v10.42c0,2.13.74,2.92,2.44,2.92s2.94-1.11,3.88-2.66V212.34H365v14.9Z"/><path class="cls-1" d="M390.26,219.76c0,4.7-2.18,7.82-5.8,7.82a5.12,5.12,0,0,1-4-2l-.25,1.68h-2.07V206.33l2.38-.28v8.18a5.14,5.14,0,0,1,4.28-2.23C388.14,212,390.26,214.8,390.26,219.76Zm-2.55,0c0-4.28-1.41-5.86-3.59-5.86a4.37,4.37,0,0,0-3.63,2.37v7.34a4.16,4.16,0,0,0,3.43,2.07C386.18,225.68,387.71,223.89,387.71,219.76Z"/><path class="cls-1" d="M406.86,219.76c0,4.67-2.41,7.82-6.57,7.82s-6.54-3-6.54-7.77,2.41-7.81,6.57-7.81S406.86,215,406.86,219.76Zm-10.56.05c0,3.94,1.41,5.84,4,5.84s4-1.9,4-5.89-1.41-5.84-4-5.84S396.3,215.82,396.3,219.81Z"/><path class="cls-1" d="M421.14,213.58,420,215.14a4.71,4.71,0,0,0-3.2-1.16c-2.44,0-4,1.9-4,5.89s1.56,5.67,4,5.67a5,5,0,0,0,3.26-1.22l1.13,1.61a6.77,6.77,0,0,1-4.48,1.65c-4,0-6.45-2.87-6.45-7.68s2.46-7.9,6.45-7.9A6.55,6.55,0,0,1,421.14,213.58Z"/><path class="cls-1" d="M435.9,225.9l-.57,1.68a2.92,2.92,0,0,1-2.78-2.3,5.07,5.07,0,0,1-4.47,2.3c-2.95,0-4.7-1.85-4.7-4.51,0-3.17,2.38-4.9,6.45-4.9h2.44V217c0-2.21-1-3.06-3.2-3.06a12.47,12.47,0,0,0-4,.82l-.6-1.75a13.94,13.94,0,0,1,5-1c3.55,0,5.16,1.81,5.16,4.9v6.91C434.65,225.2,435.1,225.62,435.9,225.9Zm-3.63-2.57v-3.54h-2.12c-2.78,0-4.25,1-4.25,3.17a2.47,2.47,0,0,0,2.72,2.8A4,4,0,0,0,432.27,223.33Z"/><path class="cls-1" d="M458.75,220.61h-9.6c.26,3.6,1.9,5,4.17,5a6.33,6.33,0,0,0,3.91-1.33l1,1.42a7.88,7.88,0,0,1-5.12,1.87c-4.11,0-6.52-2.92-6.52-7.65S449,212,452.75,212c4,0,6.06,2.8,6.06,7.31C458.81,219.81,458.78,220.3,458.75,220.61Zm-2.29-2c0-3-1.19-4.73-3.65-4.73-2.07,0-3.46,1.47-3.66,4.95h7.31Z"/><path class="cls-1" d="M474.42,216.56v10.68H472V216.9c0-2.3-.93-3-2.46-3-1.76,0-2.95,1.1-4,2.74v10.63h-2.38v-14.9h2l.2,2.24a5.67,5.67,0,0,1,4.67-2.58C472.86,212,474.42,213.73,474.42,216.56Z"/><path class="cls-1" d="M499.54,219.76c0,4.7-2.18,7.82-5.8,7.82a5.12,5.12,0,0,1-4-2l-.25,1.68h-2.07V206.33l2.38-.28v8.18a5.14,5.14,0,0,1,4.28-2.23C497.42,212,499.54,214.8,499.54,219.76Zm-2.55,0c0-4.28-1.41-5.86-3.59-5.86a4.37,4.37,0,0,0-3.63,2.37v7.34a4.16,4.16,0,0,0,3.43,2.07C495.46,225.68,497,223.89,497,219.76Z"/><path class="cls-1" d="M513,227.24l-.2-2.41a5.09,5.09,0,0,1-4.68,2.75c-2.63,0-4.16-1.65-4.16-4.56V212.34h2.38v10.42c0,2.13.74,2.92,2.44,2.92s2.94-1.11,3.88-2.66V212.34h2.38v14.9Z"/><path class="cls-1" d="M531.61,220.61H522c.25,3.6,1.89,5,4.16,5a6.31,6.31,0,0,0,3.91-1.33l1,1.42a7.93,7.93,0,0,1-5.13,1.87c-4.11,0-6.51-2.92-6.51-7.65s2.32-7.93,6.11-7.93c4,0,6.07,2.8,6.07,7.31C531.67,219.81,531.64,220.3,531.61,220.61Zm-2.3-2c0-3-1.19-4.73-3.65-4.73-2.07,0-3.45,1.47-3.65,4.95h7.3Z"/><path class="cls-1" d="M547.27,216.56v10.68h-2.38V216.9c0-2.3-.93-3-2.46-3-1.76,0-2.95,1.1-4,2.74v10.63h-2.38v-14.9h2l.2,2.24A5.68,5.68,0,0,1,543,212C545.71,212,547.27,213.73,547.27,216.56Z"/><path class="cls-1" d="M563.76,225.9l-.57,1.68a2.9,2.9,0,0,1-2.77-2.3,5.09,5.09,0,0,1-4.48,2.3c-3,0-4.7-1.85-4.7-4.51,0-3.17,2.38-4.9,6.46-4.9h2.43V217c0-2.21-1-3.06-3.2-3.06a12.47,12.47,0,0,0-4,.82l-.59-1.75a13.86,13.86,0,0,1,5-1c3.54,0,5.15,1.81,5.15,4.9v6.91C562.51,225.2,563,225.62,563.76,225.9Zm-3.63-2.57v-3.54H558c-2.78,0-4.25,1-4.25,3.17a2.47,2.47,0,0,0,2.72,2.8A4,4,0,0,0,560.13,223.33Z"/><path class="cls-1" d="M576.93,213.7l-1,1.58A6.07,6.07,0,0,0,572,213.9c-1.76,0-2.89.82-2.89,2.09s.85,1.84,3.31,2.49c3.15.83,4.9,2,4.9,4.62,0,3-2.74,4.48-5.75,4.48a8.15,8.15,0,0,1-5.58-2l1.34-1.5a6.36,6.36,0,0,0,4.19,1.53c2,0,3.31-.94,3.31-2.32,0-1.65-.76-2.21-3.71-3-3.2-.85-4.47-2.19-4.47-4.31,0-2.32,2.23-4,5.26-4A7.8,7.8,0,0,1,576.93,213.7Z"/><path class="cls-1" d="M607.63,216.56v10.68h-2.38V216.9c0-2.3-1-3-2.18-3-1.67,0-2.63,1.1-3.68,2.74v10.63H597V216.9c0-2.3-1-3-2.18-3-1.64,0-2.63,1.1-3.65,2.74v10.63H588.8v-14.9h2l.2,2.24A5.17,5.17,0,0,1,595.4,212a3.73,3.73,0,0,1,3.74,2.77,5.28,5.28,0,0,1,4.5-2.77C606.08,212,607.63,213.75,607.63,216.56Z"/><path class="cls-1" d="M624.15,225.9l-.57,1.68a2.9,2.9,0,0,1-2.77-2.3,5.09,5.09,0,0,1-4.48,2.3c-2.94,0-4.7-1.85-4.7-4.51,0-3.17,2.38-4.9,6.46-4.9h2.43V217c0-2.21-1-3.06-3.2-3.06a12.47,12.47,0,0,0-4,.82l-.59-1.75a13.86,13.86,0,0,1,5-1c3.54,0,5.15,1.81,5.15,4.9v6.91C622.9,225.2,623.36,225.62,624.15,225.9Zm-3.63-2.57v-3.54H618.4c-2.78,0-4.25,1-4.25,3.17a2.47,2.47,0,0,0,2.72,2.8A4,4,0,0,0,620.52,223.33Z"/><path class="cls-1" d="M639.59,216.56v10.68h-2.38V216.9c0-2.3-.94-3-2.47-3-1.75,0-2.94,1.1-4,2.74v10.63H628.4v-14.9h2l.2,2.24a5.67,5.67,0,0,1,4.67-2.58C638,212,639.59,213.73,639.59,216.56Z"/><path class="cls-1" d="M657,219.76c0,4.67-2.41,7.82-6.57,7.82s-6.55-3-6.55-7.77,2.41-7.81,6.57-7.81S657,215,657,219.76Zm-10.57.05c0,3.94,1.42,5.84,4,5.84s4-1.9,4-5.89-1.42-5.84-4-5.84S646.41,215.82,646.41,219.81Z"/><path class="cls-1" d="M670.35,213.7l-1.05,1.58a6.09,6.09,0,0,0-3.85-1.38c-1.76,0-2.89.82-2.89,2.09s.85,1.84,3.31,2.49c3.15.83,4.9,2,4.9,4.62,0,3-2.75,4.48-5.75,4.48a8.15,8.15,0,0,1-5.58-2l1.33-1.5a6.37,6.37,0,0,0,4.2,1.53c2,0,3.31-.94,3.31-2.32,0-1.65-.77-2.21-3.71-3-3.2-.85-4.48-2.19-4.48-4.31,0-2.32,2.24-4,5.27-4A7.8,7.8,0,0,1,670.35,213.7Z"/><path class="cls-1" d="M183.55,133.45h23.72c11.51,0,19.56,8.05,19.56,20s-8.05,20.25-19.56,20.25H194.72V194.9H183.55ZM205.19,164c6.49,0,10.3-4.16,10.3-10.56s-3.81-10.39-10.12-10.39H194.72V164Z"/><rect class="cls-2" x="81.2" y="121.43" width="87.44" height="73.36"/><path class="cls-1" d="M257,167.2h1.47v-.6c0-5.8-3.63-7.79-8.48-7.79-6.32,0-12.12,4.24-12.12,4.24l-4.15-7.88A29.79,29.79,0,0,1,251,149.72c11.6,0,18.35,6.4,18.35,17.57V194.9H259.2v-3.64a26.79,26.79,0,0,1,.18-3.11h-.18c.09,0-3.37,7.79-13.41,7.79-7.88,0-15-4.94-15-13.76C230.81,168.15,249.77,167.2,257,167.2Zm-8.39,20.17c5.8,0,9.95-6.23,9.95-11.6v-1h-1.9c-5.63,0-14.72.78-14.72,6.93C241.89,184.6,244.06,187.37,248.56,187.37Z"/><path class="cls-1" d="M280.32,150.76h10.56v5.1a27.73,27.73,0,0,1-.17,3h.17a17.12,17.12,0,0,1,15.67-9.17c9.78,0,15.32,5.1,15.32,16.79V194.9H311V168.76c0-5.37-1.38-9-7-9-5.89,0-10.21,3.72-11.86,9a18.79,18.79,0,0,0-.78,5.88V194.9h-11Z"/><path class="cls-1" d="M353.89,149.72c13.5,0,24.32,9.61,24.32,23.11S367.39,195.94,354,195.94s-24.32-9.52-24.32-23.11S340.47,149.72,353.89,149.72Zm.09,36.87c7.09,0,13.07-5.54,13.07-13.76s-6-13.76-13.07-13.76-13.16,5.62-13.16,13.76S346.79,186.59,354,186.59Z"/><path class="cls-1" d="M386.61,150.76h10.56v7.61a28.93,28.93,0,0,1-.18,3.12h.18c2-6.32,7.27-11.34,14-11.34a12.77,12.77,0,0,1,2,.17v10.82a19.41,19.41,0,0,0-2.6-.17c-4.67,0-9.95,2.68-12,9.26a23.79,23.79,0,0,0-.95,7.19V194.9h-11Z"/><path class="cls-1" d="M442.61,167.2h1.47v-.6c0-5.8-3.64-7.79-8.49-7.79-6.31,0-12.11,4.24-12.11,4.24l-4.16-7.88a29.79,29.79,0,0,1,17.31-5.45c11.6,0,18.35,6.4,18.35,17.57V194.9H444.86v-3.64a28.35,28.35,0,0,1,.17-3.11h-.17c.08,0-3.38,7.79-13.42,7.79-7.88,0-15-4.94-15-13.76C416.47,168.15,435.42,167.2,442.61,167.2Zm-18.53-32.63v-1h7.79v1a5.07,5.07,0,1,0,10.13-.09v-.95h7.79v1c0,7.19-6.06,11.08-12.81,11.08S424.08,141.76,424.08,134.57Zm10.13,52.8c5.8,0,10-6.23,10-11.6v-1h-1.9c-5.63,0-14.71.78-14.71,6.93C427.55,184.6,429.71,187.37,434.21,187.37Z"/><path class="cls-1" d="M466,150.76h10.55v5.1a27.73,27.73,0,0,1-.17,3h.17c2.17-4.32,7.45-9.17,14.37-9.17,6.75,0,11.08,3.11,12.9,9.09H504A17.27,17.27,0,0,1,519,149.72c9.18,0,14.46,5.19,14.46,16.79V194.9h-11V168.59c0-5-1-8.83-6-8.83-5.63,0-9.35,4.5-10.65,10a23.87,23.87,0,0,0-.52,5.71V194.9h-11V168.59c0-4.76-.78-8.83-6-8.83-5.71,0-9.43,4.5-10.81,10.12a22.75,22.75,0,0,0-.52,5.63V194.9H466Z"/><path class="cls-1" d="M544.56,133.45h10.91v9.78H544.56Zm0,17.31h11V194.9h-11Z"/><path class="cls-1" d="M567.24,133.45h11v32.89h5.45l10.65-15.58h12.21L592.6,170.49v.17l16.25,25.14H596.22l-12.28-20.2h-5.71v19.3h-11Z"/><path class="cls-1" d="M637,167.2h1.47v-.6c0-5.8-3.63-7.79-8.48-7.79-6.32,0-12.12,4.24-12.12,4.24l-4.15-7.88A29.75,29.75,0,0,1,631,149.72c11.6,0,18.35,6.4,18.35,17.57V194.9H639.25v-3.64a28.35,28.35,0,0,1,.17-3.11h-.17c.09,0-3.38,7.79-13.42,7.79-7.87,0-15-4.94-15-13.76C610.86,168.15,629.82,167.2,637,167.2Zm-8.4,20.17c5.8,0,10-6.23,10-11.6v-1h-1.91c-5.62,0-14.71.78-14.71,6.93C621.94,184.6,624.1,187.37,628.6,187.37Z"/><polygon class="cls-3" points="147.81 169.38 102.18 169.37 85.76 194.78 99.72 194.78 112.62 173.46 118.92 173.46 118.92 194.79 131.06 194.79 131.06 194.78 131.07 194.78 131.07 173.47 137.37 173.47 150.28 194.79 164.23 194.79 147.81 169.38"/><polygon class="cls-3" points="147.93 166.41 162.32 146.04 148.84 146.04 137.08 163.24 131.06 163.24 131.06 163.23 131.07 163.23 131.07 126.91 118.93 126.91 118.93 126.92 118.92 126.92 118.92 163.23 112.91 163.23 101.15 146.03 87.67 146.03 102.06 166.41 147.93 166.41"/><path class="cls-1" d="M663.74,150.23a7,7,0,1,1,0,14,7,7,0,1,1,0-14Zm-.08,1.4a5.56,5.56,0,0,0,.08,11.12,5.33,5.33,0,0,0,5.31-5.52,5.41,5.41,0,0,0-5.35-5.6Zm-1.06,9.17H661v-7a18,18,0,0,1,2.68-.22,3.67,3.67,0,0,1,2.37.56,1.72,1.72,0,0,1,.73,1.48,1.81,1.81,0,0,1-1.45,1.66v.08c.68.21,1,.77,1.23,1.7a7,7,0,0,0,.51,1.7h-1.69a5.5,5.5,0,0,1-.56-1.7c-.12-.72-.55-1.06-1.44-1.06h-.76Zm0-3.91h.76c.89,0,1.62-.29,1.62-1s-.47-1.06-1.49-1.06a4,4,0,0,0-.89.09Z"/></svg>