<?xml version="1.0" encoding="utf-8"?>
<!-- Generator: Adobe Illustrator 22.0.1, SVG Export Plug-In . SVG Version: 6.00 Build 0)  -->
<svg version="1.1" id="Capa_1" xmlns="http://www.w3.org/2000/svg" xmlns:xlink="http://www.w3.org/1999/xlink" x="0px" y="0px"
	 viewBox="0 0 100 100" style="enable-background:new 0 0 100 100;" xml:space="preserve">
<style type="text/css">
	.st0{fill:#FFFFFF;}
</style>
<path class="st0" d="M91,76H9c-1.7,0-3,1.3-3,3s1.3,3,3,3h82c1.7,0,3-1.3,3-3S92.7,76,91,76z M91,48H9c-1.7,0-3,1.3-3,3s1.3,3,3,3
	h82c1.7,0,3-1.3,3-3S92.7,48,91,48z M9,25h82c1.7,0,3-1.3,3-3s-1.3-3-3-3H9c-1.7,0-3,1.3-3,3S7.3,25,9,25z"/>
</svg>
